<svg id="Capa_9" data-name="Capa 9" xmlns="http://www.w3.org/2000/svg" viewBox="0 0 242.25 351.61"><defs><style>.cls-1{fill:#a28c6d;}</style></defs><title>isotipo solo gm</title><path class="cls-1" d="M613.12,444.1v-12c.22-.18.2-33.34,0-33.07,0-12.54,0-28.68,0-28.72v-5.4H589v24.16s.13,19.53.17,29.55a95.78,95.78,0,0,1-26.83,10.54l0,0a97.48,97.48,0,0,1-21.49,2.39,98.5,98.5,0,0,1-12.34-.79h0l-.69-.1-.83-.11-1.69-.26-1-.16-1.49-.27-1.19-.23-1.15-.24-.79-.16h0A95.86,95.86,0,0,1,491.53,418c0-9.78,0-29.85.05-29.81V318.84c.23-1.45.24-13.53,0-14.73V251.92a96,96,0,0,1,36.91-12.7v65.43a100.74,100.74,0,0,0,0,13.57V336H496.7v23.38h31.79v65a91,91,0,0,0,24.15,0v-65h0V336h0V317.87c.34-1.26.47-11.35.09-12.58l-.09-1.63V192.51L589,219.1l0,6.32a120,120,0,0,0-31.55-9.21v23.67A95.92,95.92,0,0,1,589,251.3v.19a96.5,96.5,0,0,1,24.16,19.63V271a96.63,96.63,0,0,1,11.35,15.75h25.71a121.48,121.48,0,0,0-37-46.93v-7.07a5.53,5.53,0,0,0,.15-1.3c0-11.2,1.37-12.87,3.14-14.79s8.32-1.79,8.32-1.79l-18-12.9v.14l-66.24-48.47-.32.44-.32-.44L456,214.9s6.56-.13,8.33,1.79,3.14,3.59,3.14,14.79v.66a126.39,126.39,0,0,1,24.16-13.33l.8-.14,36.11-26.77v23.5a120.18,120.18,0,0,0-36.91,9.38s-16.73,8.23-24.16,13.83v.1a121.22,121.22,0,0,0-44.61,65v0c-.17.8-3.34,13.38-3.08,14.72-.49,3.4-.85,6.84-1.05,10.32,0,.36,0,.73-.05,1.1-.5,1-.32,13.41.18,15.11a120.82,120.82,0,0,0,43.82,84.46V391.67a96.54,96.54,0,0,1,4.78-119.42v31.07s-.08,15.22,0,16.69v13.9h.1V442h-.1v1.64s-2.1,10.19-11.19,12.34l23.06,13.29v.12l.1-.06.11.06v-.12L502.56,456c-5.3-1.25-8.22-5.24-9.74-8.34a120.31,120.31,0,0,0,35.67,8.83v3.87c-.52,3.47-3.12,17.78-11.09,21.12l23.06,23.57v.22l.1-.11.11.11v-.22l23.06-23.57c-8-3.34-10.57-17.65-11.09-21.12V456.3A120.4,120.4,0,0,0,588,446.93c-1.4,3.18-4.36,7.73-10.09,9.08l23.06,13.29v.12l.11-.06.11.06v-.12L624.21,456C616.24,454.13,613.64,446.06,613.12,444.1Z" transform="translate(-418.34 -153.67)"/><path class="cls-1" d="M644.77,336H613.12s.19-31.05,0-32.13V281.68A90.74,90.74,0,0,0,589,259.17v44.15s-.08,15.22,0,16.69V336H557.57v23.38H589v.17h24.16v-.17h21.13a96.11,96.11,0,0,1-15.58,32.74v35.47A120.74,120.74,0,0,0,660.59,336Z" transform="translate(-418.34 -153.67)"/></svg>