<svg xmlns="http://www.w3.org/2000/svg" viewBox="0 0 884.65 289.97"><defs><style>.cls-1{font-size:69.78px;font-family:Ramabhadra, Ramabhadra;}.cls-1,.cls-2{fill:#a28c6d;}</style></defs><title>logotipo horizontal</title><g id="Capa_8" data-name="Capa 8"><text class="cls-1" transform="translate(227.4 186.93) scale(0.97 1)">GUYCHO MENDOZA</text></g><g id="Capa_6" data-name="Capa 6"><g id="Capa_10" data-name="Capa 10"><path class="cls-2" d="M183.27,450.78v-9.92c.18-.15.16-27.52,0-27.29,0-10.35,0-23.68,0-23.71V385.4H163.33v20s.1,16.12.14,24.38a79.25,79.25,0,0,1-22.15,8.71h0a80.62,80.62,0,0,1-27.93,1.32h0l-.56-.08-.69-.1c-.47-.06-.93-.13-1.4-.21l-.78-.13-1.23-.22-1-.19-1-.2-.66-.14h0a79.36,79.36,0,0,1-23.25-9.24c0-8.08,0-24.64,0-24.61V347.39c.19-1.19.2-11.16,0-12.15V292.16a79.25,79.25,0,0,1,30.46-10.48v54a85.42,85.42,0,0,0,0,11.2v14.64H87.18v19.3h26.23v53.63a74,74,0,0,0,19.94,0V380.82h0v-19.3h0V346.59a60.89,60.89,0,0,0,.08-10.37l-.17-3c-.07-14.23-.15-38.13-.19-51.62l.19,0V247h.09v-3.8l30,22v5.11a98.89,98.89,0,0,0-26-7.6v19.53a79.1,79.1,0,0,1,26,9.43v.16A79.83,79.83,0,0,1,183.27,308v-.08a80.84,80.84,0,0,1,9.37,13h21.21a100.32,100.32,0,0,0-30.58-38.75v-5.72a4.46,4.46,0,0,0,.14-1.17c0-9.24,1.13-10.62,2.59-12.21s6.87-1.48,6.87-1.48l-27.19-19.43-42.07-30.86h-.91L72,248.51,53.55,261.6s5.41-.1,6.87,1.48,2.59,3,2.59,12.21v.55a104.51,104.51,0,0,1,19.94-11l.66-.11,29.8-21.87V262A99.15,99.15,0,0,0,83,269.76S69.15,276.55,63,281.17v.09A100,100,0,0,0,26.19,335v0c-.13.65-2.75,11-2.53,12.14q-.61,4.21-.87,8.52c0,.3,0,.6,0,.91-.42.82-.27,11.07.15,12.47a99.65,99.65,0,0,0,36.16,69.71V407.51A79.71,79.71,0,0,1,63,308.94v25.64s-.07,12.57,0,13.78v11.48h.08v89.23H63v1.36s-1.74,8.41-9.24,10.18l19,11v.1l.08-.05.09.05v-.1l19-11a12.17,12.17,0,0,1-8-6.88A99,99,0,0,0,113.41,461v3.19c-.43,2.87-2.57,14.68-9.15,17.44l19,19.45v.18l.08-.09.09.09v-.18l19-19.45c-6.58-2.76-8.72-14.57-9.15-17.44v-3.36a99.19,99.19,0,0,0,29.15-7.73c-1.16,2.62-3.6,6.38-8.32,7.49l19,11v.1l.09-.05.08.05v-.1l19-11C185.84,459.06,183.7,452.4,183.27,450.78Z" transform="translate(-22.5 -211.31)"/><path class="cls-2" d="M209.39,361.52H183.27s.16-25.63,0-26.52V316.73a74.93,74.93,0,0,0-19.94-18.58v36.43s-.07,12.57,0,13.78v13.16H137.42v19.3h25.91V381h19.94v-.13h17.44a79.51,79.51,0,0,1-12.86,27v29.28a99.66,99.66,0,0,0,34.6-75.6Z" transform="translate(-22.5 -211.31)"/></g></g></svg>